<?xml version="1.0" encoding="UTF-8"?>
<svg viewBox="0 0 480 60" xmlns="http://www.w3.org/2000/svg">
	<g stroke="null">
		<polygon class="cls-1" points="41.544 42.61 42.748 42.61 53.28 35.525 61.297 19.013 63.458 14.562 53.041 14.562 32.628 31.428 28.597 14.562 18.178 14.562 4.5582 42.61 12.851 42.61 21.55 24.699 25.315 39.964 31.607 39.964 50.262 24.659" fill="#0b0000" />
		<polygon class="cls-2" points="109.82 9.579 95.784 11.685 78.771 23.136 74.36 14.562 63.46 14.562 70.675 28.585 32.291 54.421 60.738 42.61 73.479 34.035 77.89 42.61 88.789 42.61 81.574 28.585" fill="#ff1e27" />
		<path class="cls-1" d="m161.88 14.678c-0.554-0.079-1.114-0.118-1.674-0.116h-44.305c-7.574 0-15.961 4.808-19.345 11.781l-2.199 4.529c-3.484 7.17 0.348 11.738 7.877 11.738h17.952l6.577-13.537h-8.261l-3.732 7.692h-8.779c-4.044 0-5.083-2.324-3.348-5.885l2.215-4.572c1.618-3.332 5.026-5.897 9.081-5.897h42.683c0.825-0.022 1.485 0.678 1.416 1.499-0.192 1.787-2.521 4.111-5.482 4.111h-19.792l-8.056 16.589h8.43l5.233-10.78 1.1 0.044h12.342c6.399-0.044 11.679-4.248 13.784-8.497 1.982-3.95 1.277-7.988-3.717-8.699z" fill="#0b0000" />
		<polygon class="cls-1" points="169.23 28.465 166.62 33.836 185.16 33.836 187.77 28.465" fill="#0b0000" />
		<path class="cls-1" d="m223.27 14.561h-28.371l3.896 5.331h19.8c4.97 0 1.832 6.131-2.978 6.131h-19.797l-8.054 16.585h8.418l5.231-10.778 1.102 0.039h12.34c6.399-0.039 11.682-4.243 13.784-8.492 2.2-4.367 1.119-8.816-5.371-8.816z" fill="#0b0000" />
		<polygon class="cls-1" points="237.15 14.562 223.53 42.61 231.82 42.61 245.44 14.562" fill="#0b0000" />
		<path class="cls-1" d="m250.45 30.87 2.215-4.569c1.615-3.325 5.023-5.89 9.072-5.89h28.649l2.841-5.849h-29.538c-7.573 0-15.96 4.808-19.347 11.781l-2.198 4.527c-3.483 7.172 0.35 11.74 7.877 11.74h15.584l2.84-5.85h-14.645c-4.047 0-5.083-2.319-3.35-5.89z" fill="#0b0000" />
		<polygon class="cls-1" points="284.93 14.562 271.31 42.61 279.61 42.61 293.23 14.562" fill="#0b0000" />
		<polygon class="cls-1" points="317.19 14.562 307.65 14.562 288.56 27.384 296.39 42.61 305.93 42.61 298.1 27.384" fill="#0b0000" />
		<path class="cls-1" d="m342.45 25.334h-15.229c-4.608 0-1.822-5.416 2.628-5.416h22.922l2.606-5.367h-26.487l0.02 0.038c-5.416 0.441-9.8 4.087-11.671 7.774-2.045 4.046-1.082 8.253 4.909 8.295h15.588c5.009 0 1.893 6.089-2.976 6.129h-33.372l-2.824 5.812h36.659l-0.023-0.042c5.886-0.493 10.617-4.449 12.642-8.453 2.203-4.357 1.099-8.77-5.392-8.77z" fill="#0b0000" />
		<polygon class="cls-2" points="351 42.61 358.98 42.61 362.85 34.635 354.87 34.635" fill="#ff1e27" />
		<path class="cls-1" d="m377.13 31.591c1.516-3.126 3.2-3.646 6.097-3.646h14.387l2.606-5.371h-16.349c-6.131 0-10.121 1.283-13.232 7.695l-2.461 5.048c-3.018 6.211 0.866 7.293 5.953 7.293h16.349l2.61-5.37h-14.377c-2.605 0-4.035-0.601-2.634-3.485l1.051-2.164z" fill="#0b0000" />
		<path class="cls-1" d="m423.22 22.574h-7.173c-5.971 0-10.502 1.244-13.633 7.695l-2.462 5.048c-3.113 6.412 1.231 7.293 6.4 7.293h7.138c5.932 0 10.186-1.001 13.499-7.414l2.51-5.168c3.111-6.417-1.029-7.454-6.279-7.454zm-1.555 8.897-1.13 2.244c-1.477 3.045-3.636 3.525-6.321 3.525h-3.365c-1.644 0-2.729-0.246-3.2-0.761-0.527-0.479-0.44-1.403 0.202-2.724l1.091-2.164c0.296-0.62 0.649-1.21 1.056-1.762 1.577-1.844 3.718-1.884 5.363-1.884h3.365c2.688 0 4.438 0.441 2.939 3.526z" fill="#0b0000" />
		<path class="cls-1" d="m464.21 22.574h-27.248l-9.73 20.036h7.139l6.891-14.184h7.975l-6.891 14.184h7.138l6.892-14.184c1.361 0 3.984-0.121 5.191 0.199 0.945 0.281 1.617 0.884 1.194 2.084-0.196 0.693-0.456 1.366-0.778 2.009l-4.807 9.897h7.138l6.188-12.743c2.845-5.895-1.243-7.298-6.292-7.298z" fill="#0b0000" />
	</g>
</svg>
