<?xml version="1.0" standalone="no"?>
<!DOCTYPE svg PUBLIC "-//W3C//DTD SVG 20010904//EN"
 "http://www.w3.org/TR/2001/REC-SVG-20010904/DTD/svg10.dtd">
<svg version="1.0" xmlns="http://www.w3.org/2000/svg"
 width="700.000000pt" height="700.000000pt" viewBox="0 0 700.000000 700.000000"
 preserveAspectRatio="xMidYMid meet">
<metadata>
Created by potrace 1.14, written by Peter Selinger 2001-2017
</metadata>
<g transform="translate(0.000000,700.000000) scale(0.100000,-0.100000)"
fill="#000000" stroke="none">
<path d="M6847 4693 c-2 -1 -22 -5 -45 -8 -35 -4 -253 -36 -412 -60 -19 -3
-51 -8 -70 -11 -19 -3 -78 -12 -130 -20 -52 -8 -115 -18 -140 -21 -38 -5 -102
-44 -405 -248 -198 -133 -442 -297 -543 -365 -102 -68 -187 -119 -191 -114 -5
5 -68 126 -141 269 -72 143 -134 262 -136 264 -3 3 -614 5 -677 2 -19 -1 -28
18 318 -656 54 -104 101 -194 106 -200 25 -26 4 -47 -143 -146 -84 -56 -220
-148 -303 -204 -82 -56 -296 -200 -475 -320 -179 -120 -338 -228 -355 -239
-16 -12 -37 -26 -47 -31 -9 -6 -78 -52 -155 -104 -76 -52 -316 -213 -533 -359
-217 -146 -399 -269 -405 -274 -5 -5 10 0 35 10 25 11 124 52 220 92 466 192
707 292 725 301 11 5 199 83 418 173 l398 165 182 122 c100 68 284 191 408
275 l227 153 88 -172 c48 -95 111 -217 139 -272 l52 -100 347 -3 c190 -1 346
0 346 3 0 5 -81 165 -290 570 -173 336 -164 316 -149 330 8 7 111 78 229 157
320 215 789 531 1105 743 154 104 314 211 355 238 93 61 98 66 71 64 -12 -1
-23 -2 -24 -4z"/>
<path d="M1059 4382 c-9 -1 -52 -78 -96 -170 -45 -92 -132 -270 -193 -397
-458 -941 -590 -1215 -590 -1221 0 -2 118 -4 263 -4 l263 0 57 118 c310 649
500 1028 504 1007 3 -11 16 -67 30 -125 14 -58 26 -112 28 -120 2 -8 27 -107
55 -220 28 -113 53 -212 55 -220 2 -8 15 -62 29 -120 14 -58 28 -115 31 -127
5 -23 6 -23 207 -23 l201 0 71 56 c39 32 76 62 81 68 6 6 57 49 115 96 58 46
110 89 116 95 6 5 26 22 45 37 28 22 354 288 424 346 11 9 45 37 75 62 30 25
57 47 60 50 3 3 25 21 50 40 25 19 56 45 70 57 62 54 73 63 76 61 1 -2 -29
-68 -68 -148 -39 -80 -109 -224 -155 -320 -98 -201 -222 -457 -282 -579 -23
-46 -41 -86 -41 -88 0 -1 16 -3 36 -3 31 0 86 33 353 212 174 116 326 219 338
227 12 9 58 90 102 181 44 91 126 260 182 375 56 116 142 293 191 395 150 309
188 388 188 397 0 6 -437 9 -635 4 -17 -1 -41 -11 -55 -24 -14 -12 -155 -130
-315 -262 -159 -131 -344 -283 -410 -338 -66 -54 -129 -106 -140 -115 -53 -44
-141 -118 -145 -122 -3 -3 -21 -17 -40 -32 -19 -14 -44 -34 -55 -44 -11 -11
-40 -35 -65 -55 -25 -20 -56 -46 -69 -58 -22 -19 -26 -20 -34 -6 -4 8 -10 25
-13 38 -2 12 -13 59 -24 105 -11 45 -29 119 -40 165 -11 45 -22 91 -24 102 -4
20 -131 550 -147 615 l-8 35 -319 0 c-175 0 -325 -1 -333 -3z"/>
</g>
</svg>
